HIERARCHY
ROOT Hips
{
	OFFSET	0.00	0.00	0.00
	CHANNELS 6 Xposition Yposition Zposition Zrotation Xrotation Yrotation
	JOINT LeftUpLeg
	{
		OFFSET	 0.126116	-0.065224	 0.014019
		CHANNELS 3 Zrotation Xrotation Yrotation
		JOINT LeftLeg
		{
			OFFSET	 0.000000	 0.569914	 0.000000
			CHANNELS 3 Zrotation Xrotation Yrotation
			JOINT LeftFoot
			{
				OFFSET	 0.000000	 0.544423	 0.000000
				CHANNELS 3 Zrotation Xrotation Yrotation
				JOINT LeftToeBase
				{
					OFFSET	 0.000000	 0.207117	 0.000000
					CHANNELS 3 Zrotation Xrotation Yrotation
					End Site
					{
						OFFSET	 0.000000	 0.207117	 0.000000
					}
				}
			}
		}
	}
	JOINT RightUpLeg
	{
		OFFSET	-0.124023	-0.065224	 0.008373
		CHANNELS 3 Zrotation Xrotation Yrotation
		JOINT RightLeg
		{
			OFFSET	 0.000000	 0.570047	 0.000000
			CHANNELS 3 Zrotation Xrotation Yrotation
			JOINT RightFoot
			{
				OFFSET	 0.000000	 0.544354	 0.000000
				CHANNELS 3 Zrotation Xrotation Yrotation
				JOINT RightToeBase
				{
					OFFSET	 0.000000	 0.207540	 0.000000
					CHANNELS 3 Zrotation Xrotation Yrotation
					End Site
					{
						OFFSET	 0.000000	 0.207540	 0.000000
					}
				}
			}
		}
	}
	JOINT Spine
	{
		OFFSET	 0.000184	 0.117403	 0.007763
		CHANNELS 3 Zrotation Xrotation Yrotation
		JOINT Spine1
		{
			OFFSET	 0.000000	 0.137269	 0.000000
			CHANNELS 3 Zrotation Xrotation Yrotation
			JOINT Spine2
			{
				OFFSET	 0.000000	 0.156879	 0.000000
				CHANNELS 3 Zrotation Xrotation Yrotation
				JOINT LeftShoulder
				{
					OFFSET	 0.080501	 0.160143	 0.002496
					CHANNELS 3 Zrotation Xrotation Yrotation
					JOINT LeftArm
					{
						OFFSET	 0.000000	 0.164363	 0.000000
						CHANNELS 3 Zrotation Xrotation Yrotation
						JOINT LeftForeArm
						{
							OFFSET	 0.000000	 0.364576	 0.000000
							CHANNELS 3 Zrotation Xrotation Yrotation
							JOINT LeftHand
							{
								OFFSET	 0.000000	 0.360812	 0.000000
								CHANNELS 3 Zrotation Xrotation Yrotation
								JOINT LeftHandIndex1
								{
									OFFSET	 0.000000	 0.086006	 0.000000
									CHANNELS 3 Zrotation Xrotation Yrotation
									JOINT LeftHandIndex2
									{
										OFFSET	 0.000000	 0.047237	 0.000000
										CHANNELS 3 Zrotation Xrotation Yrotation
										JOINT LeftHandIndex3
										{
											OFFSET	-0.004284	 0.038165	 0.000551
											CHANNELS 3 Zrotation Xrotation Yrotation
											End Site
											{
												OFFSET	-0.004284	 0.038165	 0.000551
											}
										}
									}
								}
							}
						}
					}
				}
				JOINT Neck
				{
					OFFSET	 0.000000	 0.176489	 0.000000
					CHANNELS 3 Zrotation Xrotation Yrotation
					JOINT Head
					{
						OFFSET	 0.000000	 0.077941	 0.001747
						CHANNELS 3 Zrotation Xrotation Yrotation
						End Site
						{
							OFFSET	 0.000000	 0.077941	 0.001747
						}
					}
				}
				JOINT RightShoulder
				{
					OFFSET	-0.080363	 0.159706	-0.000306
					CHANNELS 3 Zrotation Xrotation Yrotation
					JOINT RightArm
					{
						OFFSET	 0.000000	 0.164196	 0.000000
						CHANNELS 3 Zrotation Xrotation Yrotation
						JOINT RightForeArm
						{
							OFFSET	 0.000000	 0.365611	 0.000000
							CHANNELS 3 Zrotation Xrotation Yrotation
							JOINT RightHand
							{
								OFFSET	 0.000000	 0.360648	 0.000000
								CHANNELS 3 Zrotation Xrotation Yrotation
								JOINT RightHandIndex1
								{
									OFFSET	 0.000000	 0.069977	 0.000000
									CHANNELS 3 Zrotation Xrotation Yrotation
									JOINT RightHandIndex2
									{
										OFFSET	 0.000000	 0.052305	 0.000000
										CHANNELS 3 Zrotation Xrotation Yrotation
										JOINT RightHandIndex3
										{
											OFFSET	 0.009002	 0.042196	 0.000782
											CHANNELS 3 Zrotation Xrotation Yrotation
											End Site
											{
												OFFSET	 0.009002	 0.042196	 0.000782
											}
										}
									}
								}
							}
						}
					}
				}
			}
		}
	}
}
MOTION
Frames:    5
Frame Time: 0.03333334
 0.021624	 1.267595	 0.012194	-0.335946	 3.603940	 178.113500	 176.243900	 3.804930	 13.782430	 3.384282	-16.689870	 3.420248	-3.077280	 70.003330	 5.118804	 1.331492	 28.938720	-2.729976	-174.704800	 4.834192	-11.222190	-5.655997	-18.011530	-7.567760	-4.275712	 70.531440	 2.467455	-1.312042	 28.674770	 2.781586	-0.736215	 4.086147	-0.108083	-0.990922	 4.711768	-0.331311	-0.910509	-1.755674	-0.474221	-113.449300	 4.730918	 92.852230	 10.545790	 54.568870	 35.958450	 21.013580	-1.063009	 0.113267	-12.356180	-10.773950	-13.242080	-6.580301	 5.266122	 0.000000	 0.000000	 0.000000	 0.000000	 0.000000	 0.000000	 0.000000	 3.181304	-0.892783	-0.688778	 3.225662	 0.520378	 0.973856	 114.182400	-4.172179	-88.529270	-11.159440	 55.304730	-46.092720	-15.895460	-0.617347	-0.027617	 0.006979	-10.903950	 22.023820	-0.369880	 10.873130	 0.746433	 11.981670	 9.601770	-2.157272	-8.359320	 3.159339	 0.103672
-0.000813	 1.269631	-0.008730	 0.011732	 3.212070	 178.757800	 175.722500	 2.726978	 13.705490	 3.193827	-15.759280	 2.890697	-2.406433	 70.376530	 6.021607	 1.331492	 28.938720	-2.729976	-175.869100	 3.200001	-10.310340	-5.010245	-16.072810	-6.457915	-0.432317	 70.042290	-0.783326	-1.305370	 28.580710	 2.602050	-1.096234	 3.335343	-0.891883	-1.635290	 3.515108	-1.224070	-1.670560	-2.123740	-0.647394	-113.447200	 5.120858	 92.998920	 6.430097	 52.537490	 38.079680	 19.802970	-1.004379	 0.091491	-9.027690	-9.618951	-17.764370	-6.580301	 5.266122	 0.000000	 0.000000	 0.000000	 0.000000	 0.000000	 0.000000	 0.000000	 3.839314	-0.665634	-0.253049	 3.244142	 1.193915	 1.425127	 114.204100	-4.417211	-88.490580	-46.549640	 14.040980	 43.396810	-95.159630	-2.243933	-2.397094	-27.822150	-12.600010	-25.007770	-0.359779	 10.582380	 0.744568	 11.977790	 9.317254	-2.096054	-8.359142	 3.150307	 0.104227
-0.000598	 1.269625	-0.008924	 0.040424	 3.216506	 178.700600	 175.757400	 2.735754	 13.642810	 3.204119	-15.807480	 2.867596	-2.490188	 70.421810	 6.105753	 1.331492	 28.938720	-2.729976	-175.835900	 3.169934	-10.342740	-4.994500	-16.024980	-6.496297	-0.547767	 70.017940	-0.660997	-1.305387	 28.580800	 2.597588	-1.099090	 3.318795	-0.880101	-1.624665	 3.533857	-1.197322	-1.678336	-2.161613	-0.639017	-113.447300	 5.111415	 92.996840	 6.327027	 52.514360	 38.223880	 20.113010	-1.019451	 0.096950	-9.286460	-9.519563	-17.832990	-6.580301	 5.266122	 0.000000	 0.000000	 0.000000	 0.000000	 0.000000	 0.000000	 0.000000	 3.854707	-0.700957	-0.257836	 3.302025	 1.213850	 1.391773	 114.201400	-4.398460	-88.504130	-45.523520	 13.927500	 40.909180	-97.339420	-2.234606	-2.482266	-28.700110	-12.011360	-26.493340	-0.359776	 10.582290	 0.744568	 11.977790	 9.317161	-2.096035	-8.359139	 3.150257	 0.104232
-0.000247	 1.269617	-0.009234	 0.079069	 3.222708	 178.622400	 175.807500	 2.746601	 13.557180	 3.217905	-15.872060	 2.836233	-2.608435	 70.484120	 6.221958	 1.331492	 28.938720	-2.729976	-175.787500	 3.126104	-10.386820	-4.972492	-15.958190	-6.548624	-0.711554	 69.984390	-0.492153	-1.305411	 28.580940	 2.591518	-1.103220	 3.296321	-0.867945	-1.625076	 3.550826	-1.164105	-1.681943	-2.208976	-0.627572	-113.447500	 5.098549	 92.994030	 6.159262	 52.468470	 38.441030	 20.648670	-1.045379	 0.106582	-9.741213	-9.379228	-17.930280	-6.580301	 5.266122	 0.000000	 0.000000	 0.000000	 0.000000	 0.000000	 0.000000	 0.000000	 3.875645	-0.749013	-0.264333	 3.380820	 1.240718	 1.346336	 114.197600	-4.372938	-88.522600	-44.292140	 13.886620	 37.150830	-100.946400	-2.212066	-2.622210	-29.309390	-11.313920	-29.044780	-0.359772	 10.582160	 0.744568	 11.977790	 9.317033	-2.096009	-8.359138	 3.150190	 0.104238
 0.000260	 1.269606	-0.009674	 0.126142	 3.230274	 178.527400	 175.872900	 2.758222	 13.453010	 3.234383	-15.949050	 2.798006	-2.758669	 70.560740	 6.366463	 1.331492	 28.938720	-2.729976	-175.724200	 3.068866	-10.439530	-4.944872	-15.874230	-6.613390	-0.921892	 69.942830	-0.280814	-1.305440	 28.581100	 2.584063	-1.108442	 3.268740	-0.857440	-1.644104	 3.560441	-1.126903	-1.677706	-2.261605	-0.613477	-113.447800	 5.082759	 92.990560	 5.940515	 52.404040	 38.717730	 21.419050	-1.082632	 0.120887	-10.414110	-9.201728	-18.053250	-6.580301	 5.266122	 0.000000	 0.000000	 0.000000	 0.000000	 0.000000	 0.000000	 0.000000	 3.901350	-0.808034	-0.272288	 3.477652	 1.273844	 1.290426	 114.193100	-4.341595	-88.545270	-43.219180	 13.737460	 32.001260	-105.895600	-2.166959	-2.811441	-29.205180	-10.540330	-32.945300	-0.359767	 10.582000	 0.744568	 11.977790	 9.316876	-2.095977	-8.359134	 3.150107	 0.104246
